<?xml version="1.0" encoding="UTF-8" standalone="no"?>
<!-- Created with Inkscape (http://www.inkscape.org/) -->

<svg
   width="434.40488mm"
   height="296.97119mm"
   viewBox="0 0 434.40488 296.97119"
   version="1.1"
   id="svg5"
   xml:space="preserve"
   xmlns="http://www.w3.org/2000/svg"
   xmlns:svg="http://www.w3.org/2000/svg"><defs
     id="defs2" /><g
     id="layer1"
     transform="translate(44.468923,-32.137736)"><path
       d="M 132.15961,32.137736 187.11644,231.00977 -7.5701388,283.6149 246.93063,248.67546 132.15961,32.137736"
       style="fill:#a7a9ac;fill-opacity:1;fill-rule:nonzero;stroke:none;stroke-width:0.434405"
       id="path20625" /><g
       id="g6369"
       transform="matrix(1.6418468,0,0,1.6418468,-110.86845,-115.9325)"><g
         id="g6359"><path
           id="path20629"
           style="fill:#ffffff;fill-opacity:1;fill-rule:nonzero;stroke:none;stroke-width:0.264583"
           d="m 123.68833,168.63171 c -1.32151,6.49671 -4.99616,12.07263 -12.16642,14.14442 -9.14826,2.64301 -17.648549,-2.07179 -20.419458,-11.30531 -2.523657,-8.44914 2.088837,-18.93596 11.151838,-21.8518 7.35783,-2.38725 13.92275,0.15346 18.3221,5.30309 l 23.78717,-18.84218 c -10.85343,-14.02505 -33.77949,-18.6205 -53.406047,-9.5575 -18.646079,8.60261 -33.148585,32.67114 -26.293784,56.10875 6.863326,23.48878 32.841652,35.67225 57.379101,26.77124 18.01517,-6.53934 29.95991,-24.70797 31.24732,-41.12027 l -29.60182,0.3499" /><path
           id="path20637"
           style="fill:#000000;fill-opacity:1;fill-rule:nonzero;stroke:none;stroke-width:0.264583"
           d="M 148.02094,90.185192 40.441975,130.18844 62.916056,243.35259 181.48505,211.32095 Z" /><path
           id="path20645"
           style="fill:#ffffff;fill-opacity:1;fill-rule:nonzero;stroke:none;stroke-width:0.264583"
           d="m 123.68833,168.63171 c -1.32151,6.49671 -4.99616,12.07263 -12.16642,14.14442 -9.14826,2.64301 -17.648549,-2.07179 -20.419458,-11.30531 -2.523657,-8.44914 2.088837,-18.93596 11.151838,-21.8518 7.35783,-2.38725 13.92275,0.15346 18.3221,5.30309 l 23.78717,-18.84218 c -10.85343,-14.02505 -33.77949,-18.6205 -53.406047,-9.5575 -18.646079,8.60261 -33.148585,32.67114 -26.293784,56.10875 6.863326,23.48878 32.841652,35.67225 57.379101,26.77124 18.01517,-6.53934 29.95991,-24.70797 31.24732,-41.12027 l -29.60182,0.3499" /></g><g
         id="g6354"><path
           d="m 279.10643,129.29334 -6.27505,101.62837 -118.04068,5.99369 129.58469,6.43703 -5.26896,-114.05909"
           style="fill:#a7a9ac;fill-opacity:1;fill-rule:nonzero;stroke:none;stroke-width:0.264583"
           id="path20633" /><path
           id="path20641"
           style="fill:#ffffff;fill-opacity:1;fill-rule:nonzero;stroke:none;stroke-width:0.264583"
           d="M 279.10648,129.2934 171.06656,131.94492 154.7907,236.9154 272.83141,230.92182 Z" /><path
           id="path20649"
           style="fill:#000000;fill-opacity:1;fill-rule:nonzero;stroke:none;stroke-width:0.264583"
           d="m 261.55148,142.1076 -27.01851,0.22996 -2.39934,31.08544 -47.34077,-28.57706 -11.11767,74.49054 27.14614,0.34985 2.74557,-28.3316 52.48516,30.85548 5.49942,-80.10105 z" /></g></g><g
       id="g6349"
       transform="matrix(1.6418468,0,0,1.6418468,-110.86845,-115.9325)"><g
         id="g6322"><path
           id="path20661"
           style="fill:#000000;fill-opacity:1;fill-rule:nonzero;stroke:none;stroke-width:0.264583"
           d="m 303.90818,254.58953 c -0.48565,0.80996 -4.52724,7.51129 -4.52724,7.51129 0,0 5.10699,7.81823 5.64412,8.64523 h -6.30063 c -0.17049,-0.24691 -5.03026,-7.26404 -5.03026,-7.26404 l -0.0273,0.97195 v 6.29209 h -4.85122 v -16.15652 h 4.85122 v 7.55392 c 0,0 4.77448,-7.28109 4.93649,-7.55392 h 5.30307" /><path
           id="path20665"
           style="fill:#000000;fill-opacity:1;fill-rule:nonzero;stroke:none;stroke-width:0.264583"
           d="m 178.74826,254.52142 v 16.22485 h 5.38004 c 0,-0.54566 -0.0682,-6.28386 -0.0682,-6.28386 0,0 10.30746,6.09572 11.14299,6.59908 v -16.54007 h -5.43946 v 6.94066 z" /><path
           id="path20669"
           style="fill:#000000;fill-opacity:1;fill-rule:nonzero;stroke:none;stroke-width:0.264583"
           d="m 204.44537,254.56395 h 6.68428 v 3.40182 h -6.98268 v 2.99258 h 6.41145 v 3.37625 h -6.41145 v 2.99258 h 6.98268 v 3.40182 h -12.00442 v -16.16505 h 5.32014" /><path
           d="m 228.26665,254.581 v 3.8537 h -4.79154 v 12.31135 h -5.37129 V 258.4347 h -4.70629 v -3.8537 h 14.86912"
           style="fill:#000000;fill-opacity:1;fill-rule:nonzero;stroke:none;stroke-width:0.264583"
           id="path20673" /><path
           id="path20677"
           style="fill:#000000;fill-opacity:1;fill-rule:nonzero;stroke:none;stroke-width:0.264583"
           d="m 234.82303,254.56395 c 0.15349,0.34104 2.4384,5.78054 2.4384,5.78054 0,0 1.87571,-4.33966 2.30201,-5.34572 0.43447,1.00606 2.2764,5.34572 2.2764,5.34572 0,0 2.32756,-5.4395 2.4725,-5.78054 h 5.36276 c -0.29874,0.76733 -5.93399,15.39772 -6.34322,16.46346 -0.52862,-0.90374 -3.73433,-6.34325 -3.73433,-6.34325 0,0 -3.51266,5.48214 -4.06686,6.35177 -0.38333,-1.04015 -5.78906,-15.71317 -6.05336,-16.47198 h 5.3457" /><path
           d="m 265.04726,256.99382 c 1.59433,1.59434 2.46396,3.54677 2.46396,5.66118 0,2.22525 -0.91226,4.16063 -2.48102,5.68676 -1.50908,1.5176 -3.68316,2.51513 -6.59048,2.51513 -2.51513,0 -5.13258,-1.23625 -6.64165,-2.967 -1.35562,-1.52613 -2.02917,-3.47003 -2.02917,-5.19226 0,-2.17409 0.85259,-4.10094 2.39577,-5.65265 1.52612,-1.5176 3.70875,-2.59186 6.56492,-2.59186 2.49807,0 4.82563,1.04868 6.31767,2.5407 m -3.82812,8.25305 c 0.69913,-0.6906 1.06574,-1.55171 1.06574,-2.59187 0,-0.97195 -0.38402,-1.89274 -1.06574,-2.58334 -0.60569,-0.61386 -1.53467,-1.04868 -2.56628,-1.04868 -1.13395,0 -2.00358,0.46859 -2.61744,1.04868 -0.70765,0.6906 -1.05722,1.56024 -1.05722,2.54924 0,1.00605 0.39219,1.91832 1.05722,2.61744 0.6391,0.66502 1.61139,1.09131 2.71121,1.09131 0.75028,0 1.73929,-0.34922 2.47251,-1.08278"
           style="fill:#000000;fill-opacity:1;fill-rule:nonzero;stroke:none;stroke-width:0.264583"
           id="path20681" /><path
           id="path20685"
           style="fill:#000000;fill-opacity:1;fill-rule:nonzero;stroke:none;stroke-width:0.264583"
           d="m 282.8919,263.83157 4.4505,6.94859 h -6.33471 l -3.24836,-4.68071 h -2.68566 v 4.68071 h -5.26899 V 254.5469 l 10.7682,0.0137 c 2.3446,0 4.85973,1.98653 4.85973,4.93648 0,2.22525 -1.35562,3.64907 -2.54071,4.33114 m -5.71233,-5.91695 h -2.1059 l 0.0273,4.22883 h 2.5322 c 0.86963,0 2.07179,-0.69912 2.07179,-2.12294 0,-1.22773 -1.0487,-2.10589 -2.07179,-2.10589 h -0.45223" /></g><g
         id="g6331"><path
           id="path20665-4"
           style="fill:#000000;fill-opacity:1;fill-rule:nonzero;stroke:none;stroke-width:0.264583"
           d="m 154.62871,254.5212 v 16.22485 h 5.38004 c 0,-0.54566 -0.0682,-6.28386 -0.0682,-6.28386 0,0 10.30746,6.09572 11.14299,6.59908 V 254.5212 h -5.43946 v 6.94066 z" /><path
           id="path20693"
           style="fill:#000000;fill-opacity:1;fill-rule:nonzero;stroke:none;stroke-width:0.264583"
           d="m 115.67401,254.52132 v 3.87927 h -4.80006 v 12.35399 h -5.40541 v -12.35399 h -4.70628 v -3.87927 h 14.91175" /><path
           d="m 44.88371,262.68911 c 0,-4.60397 4.024212,-8.3383 8.977741,-8.3383 3.487081,0 6.607551,1.85864 8.091051,4.77448 -0.545656,0.20462 -4.450504,1.68813 -4.85122,1.85012 -0.639099,-1.21068 -1.85864,-2.00358 -3.239831,-2.00358 -2.037683,0 -3.691702,1.67959 -3.691702,3.71728 0,2.04621 1.654019,3.70875 3.691702,3.70875 1.330037,0 2.532184,-0.75028 3.188676,-1.90127 0.358087,0.0853 4.484608,1.21068 5.089943,1.37267 -1.389716,3.08636 -4.655124,5.14962 -8.278619,5.14962 -4.953529,0 -8.977741,-3.73433 -8.977741,-8.32977"
           style="fill:#000000;fill-opacity:1;fill-rule:nonzero;stroke:none;stroke-width:0.264583"
           id="path20697" /><path
           id="path20701"
           style="fill:#000000;fill-opacity:1;fill-rule:nonzero;stroke:none;stroke-width:0.264583"
           d="m 131.18257,256.99382 c 1.60286,1.59434 2.45545,3.54677 2.45545,5.66118 0,2.22525 -0.91227,4.16063 -2.4725,5.68676 -1.50908,1.5176 -3.67465,2.51513 -6.58197,2.51513 -2.51514,0 -5.13258,-1.23625 -6.65018,-2.967 -1.34709,-1.52613 -2.03769,-3.47003 -2.03769,-5.19226 0,-2.17409 0.86964,-4.10094 2.4043,-5.65265 1.5176,-1.5176 3.70875,-2.59186 6.56492,-2.59186 2.49808,0 4.82564,1.04868 6.31767,2.5407 m -3.83664,8.25305 c 0.69912,-0.6906 1.08278,-1.55171 1.08278,-2.59187 0,-0.97195 -0.384,-1.89274 -1.07426,-2.58334 -0.60568,-0.61386 -1.53465,-1.04868 -2.56628,-1.04868 -1.13394,0 -1.99506,0.46859 -2.60892,1.04868 -0.7247,0.6906 -1.07426,1.56024 -1.07426,2.54924 0,1.00605 0.40037,1.91832 1.07426,2.61744 0.63091,0.66502 1.59434,1.09131 2.7027,1.09131 0.75028,0 1.73928,-0.34922 2.46398,-1.08278" /><path
           d="m 150.41693,256.99382 c 1.58581,1.59434 2.44693,3.54677 2.44693,5.66118 0,2.22525 -0.90375,4.16063 -2.46398,5.68676 -1.52613,1.5176 -3.68318,2.51513 -6.59903,2.51513 -2.51513,0 -5.12404,-1.23625 -6.64165,-2.967 -1.33856,-1.52613 -2.03768,-3.47003 -2.03768,-5.19226 0,-2.17409 0.86964,-4.10094 2.41282,-5.65265 1.51761,-1.5176 3.6917,-2.59186 6.55639,-2.59186 2.50661,0 4.82565,1.04868 6.3262,2.5407 m -3.84517,8.25305 c 0.69913,-0.6906 1.07426,-1.55171 1.07426,-2.59187 0,-0.97195 -0.37513,-1.89274 -1.06573,-2.58334 -0.60568,-0.61386 -1.54318,-1.04868 -2.56629,-1.04868 -1.13394,0 -1.99505,0.46859 -2.60039,1.04868 -0.7247,0.6906 -1.07426,1.56024 -1.07426,2.54924 0,1.00605 0.39219,1.91832 1.05721,2.61744 0.63091,0.66502 1.61139,1.09131 2.71123,1.09131 0.76733,0 1.73075,-0.34922 2.46397,-1.08278"
           style="fill:#000000;fill-opacity:1;fill-rule:nonzero;stroke:none;stroke-width:0.264583"
           id="path20705" /><path
           id="path20709"
           style="fill:#000000;fill-opacity:1;fill-rule:nonzero;stroke:none;stroke-width:0.264583"
           d="m 95.962199,263.806 4.459031,6.94858 h -6.3603 l -3.231306,-4.6807 h -2.694175 v 4.6807 h -5.268987 v -16.23326 l 10.785226,0.0136 c 2.336088,0 4.842693,1.98653 4.842693,4.93648 0,2.23378 -1.364139,3.64908 -2.532182,4.33115 m -5.703808,-5.92549 h -2.122942 l 0.0341,4.23736 h 2.515132 c 0.869638,0 2.088838,-0.69912 2.088838,-2.12294 0,-1.24477 -1.065734,-2.11442 -2.080313,-2.11442 h -0.434478" /><path
           d="m 71.569682,253.48117 -0.04092,-0.0682 c -0.02728,-0.0341 -0.06821,-0.0682 -0.12823,-0.0682 -0.0341,0 -0.07639,0.0341 -0.110495,0.0614 l -0.04092,0.0771 -9.941166,17.30752 5.76349,0.0409 1.150993,-2.18262 h 6.351773 l 0.954897,2.12294 5.908429,0.0136 -9.864434,-17.30751 z m -2.114415,12.03852 1.81601,-3.44444 v -0.0273 h 0.0341 l 0.01365,0.0273 1.969473,3.44444 h -3.83664"
           style="fill:#000000;fill-opacity:1;fill-rule:nonzero;stroke:none;stroke-width:0.264583"
           id="path20713" /></g></g></g></svg>
